<?xml version="1.0" standalone="no"?><!DOCTYPE svg PUBLIC "-//W3C//DTD SVG 1.1//EN" "http://www.w3.org/Graphics/SVG/1.1/DTD/svg11.dtd"><svg t="1573787454801" class="icon" viewBox="0 0 1025 1024" version="1.1" xmlns="http://www.w3.org/2000/svg" p-id="1555" xmlns:xlink="http://www.w3.org/1999/xlink" width="200.1953125" height="200"><defs><style type="text/css"></style></defs><path d="M470.436 47.973L470.436 875.657l-399.46-399.436c-16.242-16.241-42.553-16.241-58.794 1e-8-16.242 16.242-16.242 42.553 0 58.79399999L482.593 1005.4c3.861 3.866 8.493 6.943 13.624 9.056 0.206 0.085 0.42 0.113 0.626 0.195 4.70999999 1.853 9.802 2.954 15.171 2.954s10.459-1.101 15.171-2.954c0.208-0.081 0.42-0.11 0.626-0.195 5.131-2.11299999 9.763-5.19100001 13.624-9.056L1011.819 535.01499999c8.121-8.121 12.181-18.759 12.181-29.39699999s-4.06-21.276-12.181-29.397c-16.242-16.241-42.553-16.241-58.794 0l-399.433 399.433 0-827.681c0-22.968-18.624-41.578-41.578-41.578S470.436 25.005 470.436 47.973z" p-id="1556"></path></svg>