<?xml version="1.0" standalone="no"?><!DOCTYPE svg PUBLIC "-//W3C//DTD SVG 1.1//EN" "http://www.w3.org/Graphics/SVG/1.1/DTD/svg11.dtd"><svg t="1562511557732" class="icon" viewBox="0 0 1024 1024" version="1.1" xmlns="http://www.w3.org/2000/svg" p-id="1838" xmlns:xlink="http://www.w3.org/1999/xlink" width="200" height="200"><defs><style type="text/css"></style></defs><path d="M556.8 512l265.6-265.6c12.8-12.8 12.8-32 0-44.8s-32-12.8-44.8 0L512 467.2 246.4 201.6c-12.8-12.8-32-12.8-44.8 0s-12.8 32 0 44.8l265.6 265.6-265.6 265.6c-12.8 12.8-12.8 32 0 44.8 6.4 6.4 12.8 9.6 22.4 9.6s16-3.2 22.4-9.6l265.6-265.6 265.6 265.6c6.4 6.4 16 9.6 22.4 9.6s16-3.2 22.4-9.6c12.8-12.8 12.8-32 0-44.8L556.8 512z" p-id="1839"></path></svg>