<?xml version="1.0" standalone="no"?><!DOCTYPE svg PUBLIC "-//W3C//DTD SVG 1.1//EN" "http://www.w3.org/Graphics/SVG/1.1/DTD/svg11.dtd"><svg t="1562511599851" class="icon" viewBox="0 0 1024 1024" version="1.1" xmlns="http://www.w3.org/2000/svg" p-id="2757" xmlns:xlink="http://www.w3.org/1999/xlink" width="200" height="200"><defs><style type="text/css"></style></defs><path d="M725.824 512l-232.128 236.544a25.6 25.6 0 0 0 36.608 35.84l246.08-250.816a30.464 30.464 0 0 0 0.192-42.88L530.304 239.68a25.6 25.6 0 0 0-36.608 35.84z" p-id="2758"></path><path d="M478.08 512l-232.064 236.544a25.6 25.6 0 1 0 36.48 35.84l246.4-250.944a30.656 30.656 0 0 0 0-42.752l-246.4-251.008a25.6 25.6 0 1 0-36.48 35.84z" p-id="2759"></path></svg>