<?xml version="1.0" standalone="no"?><!DOCTYPE svg PUBLIC "-//W3C//DTD SVG 1.1//EN" "http://www.w3.org/Graphics/SVG/1.1/DTD/svg11.dtd"><svg t="1562511604836" class="icon" viewBox="0 0 1024 1024" version="1.1" xmlns="http://www.w3.org/2000/svg" p-id="2869" xmlns:xlink="http://www.w3.org/1999/xlink" width="200" height="200"><defs><style type="text/css"></style></defs><path d="M298.176 512l232.128-236.544a25.6 25.6 0 0 0-36.608-35.84l-246.08 250.816a30.464 30.464 0 0 0-0.192 42.88L493.696 784.32a25.6 25.6 0 0 0 36.608-35.84z" p-id="2870"></path><path d="M545.92 512l232.064-236.544a25.6 25.6 0 1 0-36.48-35.84l-246.4 250.94400001a30.656 30.656 0 0 0 0 42.752l246.4 251.00799999a25.6 25.6 0 1 0 36.48-35.84z" p-id="2871"></path></svg>