<?xml version="1.0" standalone="no"?><!DOCTYPE svg PUBLIC "-//W3C//DTD SVG 1.1//EN" "http://www.w3.org/Graphics/SVG/1.1/DTD/svg11.dtd"><svg t="1562510501672" class="icon" viewBox="0 0 1024 1024" version="1.1" xmlns="http://www.w3.org/2000/svg" p-id="1492" xmlns:xlink="http://www.w3.org/1999/xlink" width="200" height="200"><defs><style type="text/css"></style></defs><path d="M552.00000031 992h-80.00000062c-34.00000031 0-60-25.99999969-60-60v-73.99999969c-25.99999969-7.99999969-49.99999969-18-73.99999969-30l-52.00000031 51.99999938c-24 24-61.99999969 24-84 0l-55.99999969-55.99999969c-24-24-24-61.99999969 0-84l52.00000031-52.00000031c-12-24-24-48-30-73.99999969H92c-34.00000031 0-60-25.99999969-60-60v-79.99999969c0-34.00000031 25.99999969-60 60-60h73.99999969c7.99999969-25.99999969 18-49.99999969 30-74.00000062l-51.99999938-51.99999938c-24-24-24-61.99999969 0-84l55.99999969-56.00000062c24-24 61.99999969-24 84 0l52.00000031 52.00000031c24-12 48-24 73.99999969-30V92c0-34.00000031 25.99999969-60 60-60h79.99999969c34.00000031 0 60 25.99999969 60 60v73.99999969c25.99999969 7.99999969 49.99999969 18 74.00000062 30l51.99999938-51.99999938c24-24 61.99999969-24 84 0l56.00000062 55.99999969c24 24 24 61.99999969 0 84l-52.00000031 52.00000031c12 24 24 48 30 73.99999969H932c34.00000031 0 60 25.99999969 60 60v79.99999969c0 34.00000031-25.99999969 60-60 60h-73.99999969c-7.99999969 25.99999969-18 49.99999969-30 74.00000062l51.99999938 51.99999938c24 24 24 61.99999969 0 84l-55.99999969 56.00000062c-24 24-61.99999969 24-84 0l-52.00000031-52.00000031c-24 12-48 24-73.99999969 30V932c-1.99999969 34.00000031-28.00000031 60-61.99999969 60zM332 776l13.99999969 7.99999969c28.00000031 18 58.00000031 30 92.00000062 38.00000062l15.99999938 3.99999938V932c0 12 7.99999969 19.99999969 20.00000062 19.99999969h79.99999969c12 0 19.99999969-7.99999969 19.99999969-19.99999969v-106.00000031l16.00000031-3.99999938c31.99999969-7.99999969 61.99999969-19.99999969 91.99999969-38.00000062l14.00000062-7.99999969 73.99999969 73.99999969c7.99999969 7.99999969 19.99999969 7.99999969 28.00000031 0l55.99999969-55.99999969c7.99999969-7.99999969 7.99999969-19.99999969 0-28.00000031L776 692l7.99999969-13.99999969c18-28.00000031 30-58.00000031 38.00000062-92.00000062l3.99999938-15.99999938H932c12 0 19.99999969-7.99999969 19.99999969-20.00000062v-79.99999969c0-12-7.99999969-19.99999969-19.99999969-19.99999969h-106.00000031l-3.99999938-16.00000031c-7.99999969-31.99999969-19.99999969-61.99999969-38.00000062-91.99999969l-7.99999969-10.00000031 73.99999969-73.99999969c7.99999969-7.99999969 7.99999969-19.99999969 0-28.00000031L794 171.99999969c-7.99999969-7.99999969-19.99999969-7.99999969-28.00000031 0L692 248l-13.99999969-7.99999969c-28.00000031-18-58.00000031-30-92.00000062-38.00000062l-13.99999969-3.99999938V92c0-12-7.99999969-19.99999969-19.99999969-19.99999969h-80.00000062c-12 0-19.99999969 7.99999969-19.99999969 19.99999969v106.00000031l-16.00000031 3.99999938c-31.99999969 7.99999969-61.99999969 19.99999969-91.99999969 38.00000062l-12 7.99999969L258.00000031 171.99999969c-7.99999969-7.99999969-19.99999969-7.99999969-28.00000031 0L171.99999969 230c-7.99999969 7.99999969-7.99999969 19.99999969 0 28.00000031l74.00000062 73.99999969-8.00000062 13.99999969c-18 28.00000031-30 58.00000031-37.99999969 92.00000062l-1.99999969 13.99999969H92c-12 0-19.99999969 7.99999969-19.99999969 19.99999969v80.00000062c0 12 7.99999969 19.99999969 19.99999969 19.99999969h106.00000031l3.99999938 16.00000031c7.99999969 31.99999969 19.99999969 61.99999969 38.00000062 91.99999969l7.99999969 13.99999969L171.99999969 765.99999969c-7.99999969 7.99999969-7.99999969 19.99999969 0 28.00000031L230 852.00000031c7.99999969 7.99999969 19.99999969 7.99999969 28.00000031 0l73.99999969-76.00000031z" p-id="1493"></path><path d="M519.99999969 698c-100.00000031 0-180-79.99999969-180-180s79.99999969-180 180-180 180 79.99999969 180 180c0 97.99999969-82.00000031 180-180 180z m0-319.99999969c-78 0-139.99999969 61.99999969-139.99999969 139.99999969s61.99999969 139.99999969 139.99999969 139.99999969 139.99999969-61.99999969 140.00000062-139.99999969-64.00000031-139.99999969-140.00000062-139.99999969z" p-id="1494"></path></svg>