<?xml version="1.0" standalone="no"?><!DOCTYPE svg PUBLIC "-//W3C//DTD SVG 1.1//EN" "http://www.w3.org/Graphics/SVG/1.1/DTD/svg11.dtd"><svg t="1562511626015" class="icon" viewBox="0 0 1024 1024" version="1.1" xmlns="http://www.w3.org/2000/svg" p-id="3328" xmlns:xlink="http://www.w3.org/1999/xlink" width="200" height="200"><defs><style type="text/css"></style></defs><path d="M619.054545 882.036364c-67.490909 0-153.6-9.309091-258.327272-25.6l-18.618182-2.327273V425.890909l9.309091-6.981818c2.327273 0 141.963636-97.745455 188.509091-256l2.327272-9.309091 6.981819-4.654545c6.981818-4.654545 62.836364-41.890909 104.727272-9.309091 41.890909 32.581818 39.563636 121.018182-9.309091 272.290909 65.163636 0 186.181818 6.981818 216.436364 65.163636 11.636364 25.6 6.981818 55.854545-18.618182 88.436364 6.981818 13.963636 16.290909 34.909091 9.309091 55.854545-4.654545 16.290909-13.963636 27.927273-30.254545 39.563637 6.981818 13.963636 13.963636 34.909091 9.309091 53.527272-2.327273 9.309091-9.309091 23.272727-20.945455 32.581818 9.309091 20.945455 11.636364 48.872727-2.327273 72.145455-20.945455 44.218182-83.781818 62.836364-188.509091 62.836364zM388.654545 814.545455c316.509091 48.872727 372.363636 2.327273 381.672728-13.963637 11.636364-18.618182-6.981818-44.218182-6.981818-44.218182l-18.618182-25.6 27.927272-11.636363c6.981818-2.327273 16.290909-6.981818 16.29091-13.963637 2.327273-9.309091-6.981818-27.927273-16.29091-37.236363l-23.272727-25.6 32.581818-11.636364c9.309091-2.327273 23.272727-9.309091 25.6-18.618182 2.327273-9.309091-6.981818-25.6-11.636363-30.254545l-13.963637-16.290909 13.963637-16.290909c11.636364-13.963636 30.254545-37.236364 23.272727-51.2-16.290909-32.581818-132.654545-41.890909-204.8-37.236364l-34.909091 4.654545 11.636364-32.581818c72.145455-211.781818 41.890909-249.018182 34.909091-253.672727-9.309091-6.981818-30.254545 0-44.218182 6.981818-44.218182 144.290909-158.254545 239.709091-193.163637 265.309091V814.545455z" p-id="3329"></path><path d="M388.654545 896h-232.727272v-512h230.4v512z m-186.181818-46.545455h137.309091v-418.90909H202.472727v418.90909z" p-id="3330"></path></svg>